<svg width="26" height="23" viewBox="0 0 26 23" fill="none" xmlns="http://www.w3.org/2000/svg">
<path fill-rule="evenodd" clip-rule="evenodd" d="M0.244141 11.6502C0.244141 11.2282 0.411757 10.8236 0.710114 10.5252C1.00847 10.2268 1.41313 10.0592 1.83507 10.0592L20.2676 10.0592L13.4362 3.23095C13.2882 3.08303 13.1709 2.90742 13.0908 2.71416C13.0108 2.52089 12.9696 2.31375 12.9696 2.10457C12.9696 1.89538 13.0108 1.68824 13.0908 1.49497C13.1709 1.30171 13.2882 1.1261 13.4362 0.978185C13.5841 0.830266 13.7597 0.712931 13.9529 0.632878C14.1462 0.552825 14.3533 0.511624 14.5625 0.511624C14.7717 0.511624 14.9789 0.552825 15.1721 0.632878C15.3654 0.712931 15.541 0.830266 15.6889 0.978185L25.2345 10.5238C25.3827 10.6716 25.5002 10.8471 25.5804 11.0404C25.6606 11.2337 25.7019 11.4409 25.7019 11.6502C25.7019 11.8594 25.6606 12.0666 25.5804 12.2599C25.5002 12.4532 25.3827 12.6288 25.2345 12.7765L15.6889 22.3221C15.541 22.4701 15.3654 22.5874 15.1721 22.6674C14.9789 22.7475 14.7717 22.7887 14.5625 22.7887C14.3533 22.7887 14.1462 22.7475 13.9529 22.6674C13.7597 22.5874 13.5841 22.4701 13.4362 22.3221C13.1374 22.0234 12.9696 21.6182 12.9696 21.1958C12.9696 20.9866 13.0108 20.7794 13.0908 20.5862C13.1709 20.3929 13.2882 20.2173 13.4362 20.0694L20.2676 13.2411L1.83507 13.2411C1.41313 13.2411 1.00847 13.0735 0.710114 12.7751C0.411757 12.4768 0.244141 12.0721 0.244141 11.6502V11.6502Z" fill="white"/>
</svg>
